<svg width="28" height="30" viewBox="0 0 28 30" fill="none" xmlns="http://www.w3.org/2000/svg">
<path fill-rule="evenodd" clip-rule="evenodd" d="M13.8636 29.1086C21.5203 29.1086 27.7273 22.6168 27.7273 14.6086C27.7273 6.60048 21.5203 0.108643 13.8636 0.108643C6.20693 0.108643 0 6.60048 0 14.6086C0 22.6168 6.20693 29.1086 13.8636 29.1086ZM21.2395 8.92761L18.7149 20.6218C18.7012 20.6857 18.6796 20.7467 18.6514 20.8033C18.634 20.8383 18.6142 20.8717 18.5921 20.9037C18.5065 21.0247 18.3865 21.1187 18.2459 21.1694C18.0097 21.2545 17.7482 21.2053 17.5544 21.04L14.255 18.2164L12.8711 20.822C12.729 21.0892 12.4477 21.2402 12.158 21.2053C11.8682 21.1703 11.6269 20.9563 11.5469 20.6631L10.2251 15.8244L7.04942 15.1597C6.73707 15.0947 6.50281 14.8227 6.47271 14.4911C6.47083 14.4699 6.46989 14.4492 6.46941 14.4291C6.46941 14.405 6.46989 14.3813 6.47177 14.3582C6.49388 14.0783 6.66416 13.8293 6.92006 13.7206L20.2601 8.06416C20.27 8.06022 20.2794 8.05629 20.2893 8.05235C20.398 8.01102 20.5109 7.99872 20.6195 8.01201C20.6986 8.02185 20.7776 8.04546 20.8524 8.08335C20.8599 8.08728 20.8674 8.09122 20.875 8.09565C20.9737 8.15075 21.0612 8.22996 21.128 8.33033C21.1624 8.38199 21.1906 8.43857 21.2118 8.49761C21.2372 8.56796 21.2517 8.64127 21.256 8.71408C21.2602 8.78444 21.255 8.85627 21.2395 8.92761ZM17.1753 11.8663L13.4854 16.583C13.4549 16.6224 13.4285 16.6637 13.4064 16.707L12.4557 18.4974L11.6401 15.5114L17.1753 11.8663Z" fill="#800202"/>
</svg>
