<svg width="28" height="30" viewBox="0 0 28 30" fill="none" xmlns="http://www.w3.org/2000/svg">
<mask id="mask0_51_91" style="mask-type:luminance" maskUnits="userSpaceOnUse" x="0" y="0" width="28" height="30">
<path d="M0.272949 0.108643H28.0002V29.1086H0.272949V0.108643Z" fill="white"/>
</mask>
<g mask="url(#mask0_51_91)">
<path d="M28.0016 14.6084C28.0016 14.8456 27.9959 15.0827 27.9846 15.3199C27.9738 15.557 27.9569 15.7932 27.9348 16.0298C27.9127 16.266 27.8849 16.5011 27.8515 16.7358C27.8181 16.971 27.7796 17.2047 27.7353 17.4374C27.6911 17.6701 27.6413 17.9013 27.5862 18.1316C27.5307 18.3619 27.4705 18.5906 27.4046 18.8179C27.3388 19.0447 27.2678 19.2701 27.1911 19.4934C27.1144 19.7168 27.033 19.9382 26.946 20.1576C26.8594 20.3771 26.7673 20.594 26.6703 20.8085C26.5734 21.023 26.4714 21.2346 26.3646 21.4442C26.2573 21.6533 26.1459 21.8599 26.0292 22.0636C25.9125 22.2668 25.7912 22.4675 25.6651 22.6648C25.539 22.8621 25.4083 23.056 25.2733 23.2468C25.1378 23.4372 24.9985 23.6242 24.8546 23.8077C24.7102 23.9912 24.5625 24.1708 24.4101 24.3469C24.2577 24.5226 24.101 24.6943 23.9406 24.8621C23.7802 25.0298 23.616 25.1937 23.4476 25.3531C23.2797 25.5125 23.108 25.6674 22.9325 25.818C22.7571 25.9685 22.5783 26.1147 22.3958 26.2559C22.2138 26.3971 22.0284 26.5338 21.8398 26.6657C21.6507 26.7976 21.4593 26.9245 21.2645 27.0465C21.0702 27.1685 20.8727 27.2856 20.6727 27.3973C20.4724 27.509 20.2696 27.6157 20.0645 27.7171C19.8594 27.8189 19.652 27.9149 19.4426 28.0059C19.2328 28.0964 19.0212 28.182 18.8076 28.2617C18.594 28.3419 18.3786 28.4162 18.1613 28.4851C17.9444 28.554 17.7257 28.6174 17.5055 28.675C17.2854 28.7326 17.0643 28.7847 16.8413 28.831C16.6188 28.8772 16.3954 28.918 16.171 28.9525C15.9466 28.9874 15.7213 29.0164 15.4955 29.0396C15.2697 29.0632 15.0435 29.0804 14.8167 29.0922C14.5905 29.1035 14.3637 29.1094 14.1365 29.1094C13.9098 29.1094 13.6831 29.1035 13.4563 29.0922C13.2296 29.0804 13.0033 29.0632 12.7775 29.0396C12.5518 29.0164 12.3264 28.9874 12.1021 28.9525C11.8777 28.918 11.6542 28.8772 11.4317 28.831C11.2092 28.7847 10.9877 28.7326 10.7675 28.675C10.5474 28.6174 10.3291 28.554 10.1118 28.4851C9.89446 28.4162 9.67949 28.3419 9.46546 28.2617C9.2519 28.182 9.04022 28.0964 8.83089 28.0059C8.62109 27.9149 8.41364 27.8189 8.20855 27.7171C8.00345 27.6157 7.80071 27.509 7.60079 27.3973C7.4004 27.2856 7.2033 27.1685 7.00856 27.0465C6.81381 26.9245 6.62236 26.7976 6.43373 26.6657C6.2451 26.5338 6.05976 26.3971 5.87724 26.2559C5.6952 26.1147 5.51598 25.9685 5.34099 25.818C5.16553 25.6674 4.99383 25.5125 4.82543 25.3531C4.6575 25.1937 4.49286 25.0298 4.33245 24.8621C4.17204 24.6943 4.01587 24.5226 3.86346 24.3469C3.71105 24.1708 3.56288 23.9912 3.41893 23.8077C3.27499 23.6242 3.13528 23.4372 3.00028 23.2468C2.8648 23.056 2.7345 22.8621 2.60843 22.6648C2.48237 22.4675 2.361 22.2668 2.24434 22.0636C2.12768 21.8599 2.01573 21.6533 1.90895 21.4442C1.8017 21.2346 1.70009 21.023 1.60272 20.8085C1.50581 20.594 1.41409 20.3771 1.32706 20.1576C1.24004 19.9382 1.15866 19.7168 1.08198 19.4934C1.00578 19.2701 0.934749 19.0447 0.868893 18.8179C0.803037 18.5906 0.742355 18.3619 0.687318 18.1316C0.631811 17.9013 0.582419 17.6701 0.538201 17.4374C0.493984 17.2047 0.454941 16.971 0.421542 16.7358C0.388614 16.5011 0.36086 16.266 0.338281 16.0298C0.316172 15.7932 0.299708 15.557 0.288419 15.3199C0.277129 15.0827 0.271484 14.8456 0.271484 14.6084C0.271484 14.3708 0.277129 14.1337 0.288419 13.8965C0.299708 13.6594 0.316172 13.4232 0.338281 13.1866C0.36086 12.9504 0.388614 12.7153 0.421542 12.4806C0.454941 12.2454 0.493984 12.0117 0.538201 11.779C0.582419 11.5463 0.631811 11.315 0.687318 11.0848C0.742355 10.8545 0.803037 10.6258 0.868893 10.3985C0.934749 10.1717 1.00578 9.94632 1.08198 9.72296C1.15866 9.49959 1.24004 9.2782 1.32706 9.05877C1.41409 8.83934 1.50581 8.62237 1.60272 8.40786C1.70009 8.19335 1.8017 7.9818 1.90895 7.77221C2.01573 7.56311 2.12768 7.35647 2.24434 7.15279C2.361 6.94959 2.48237 6.74886 2.60843 6.55157C2.7345 6.35428 2.8648 6.16044 3.00028 5.96955C3.13528 5.77915 3.27499 5.59219 3.41893 5.40867C3.56288 5.22516 3.71105 5.04558 3.86346 4.86945C4.01587 4.69381 4.17204 4.5221 4.33245 4.35433C4.49286 4.18657 4.6575 4.02273 4.82543 3.86333C4.99383 3.70392 5.16553 3.54894 5.34099 3.39839C5.51598 3.24784 5.6952 3.10172 5.87724 2.96052C6.05976 2.81932 6.2451 2.68254 6.43373 2.55069C6.62236 2.41884 6.81381 2.2919 7.00856 2.16989C7.2033 2.04787 7.4004 1.93078 7.60079 1.8191C7.80071 1.70742 8.00345 1.60065 8.20855 1.4993C8.41364 1.39746 8.62109 1.30152 8.83089 1.2105C9.04022 1.11998 9.2519 1.03437 9.46546 0.954667C9.67949 0.874472 9.89446 0.800181 10.1118 0.731303C10.3291 0.662423 10.5474 0.598957 10.7675 0.541393C10.9877 0.48383 11.2092 0.431679 11.4317 0.385432C11.6542 0.339184 11.8777 0.298841 12.1021 0.26391C12.3264 0.228978 12.5518 0.199951 12.7775 0.176827C13.0033 0.153211 13.2296 0.135992 13.4563 0.124184C13.6831 0.112868 13.9098 0.106964 14.1365 0.106964C14.3637 0.106964 14.5905 0.112868 14.8167 0.124184C15.0435 0.135992 15.2697 0.153211 15.4955 0.176827C15.7213 0.199951 15.9466 0.228978 16.171 0.26391C16.3954 0.298841 16.6188 0.339184 16.8413 0.385432C17.0643 0.431679 17.2854 0.48383 17.5055 0.541393C17.7257 0.598957 17.9444 0.662423 18.1613 0.731303C18.3786 0.800181 18.594 0.874472 18.8076 0.954667C19.0212 1.03437 19.2328 1.11998 19.4426 1.2105C19.652 1.30152 19.8594 1.39746 20.0645 1.4993C20.2696 1.60065 20.4724 1.70742 20.6727 1.8191C20.8727 1.93078 21.0702 2.04787 21.2645 2.16989C21.4593 2.2919 21.6507 2.41884 21.8393 2.55069C22.0284 2.68254 22.2138 2.81932 22.3958 2.96052C22.5783 3.10172 22.7571 3.24784 22.9325 3.39839C23.108 3.54894 23.2797 3.70392 23.4476 3.86333C23.616 4.02273 23.7802 4.18657 23.9406 4.35433C24.101 4.5221 24.2577 4.69381 24.4101 4.86945C24.5625 5.04558 24.7102 5.22516 24.8546 5.40867C24.9985 5.59219 25.1378 5.77915 25.2733 5.96955C25.4083 6.16044 25.539 6.35428 25.6651 6.55157C25.7912 6.74886 25.9125 6.94959 26.0292 7.15279C26.1459 7.35647 26.2573 7.56311 26.3646 7.77221C26.4714 7.9818 26.5734 8.19335 26.6703 8.40786C26.7673 8.62237 26.8594 8.83934 26.946 9.05877C27.033 9.2782 27.1144 9.49959 27.1911 9.72296C27.2678 9.94632 27.3388 10.1717 27.4046 10.3985C27.4705 10.6258 27.5307 10.8545 27.5862 11.0848C27.6413 11.315 27.6911 11.5463 27.7353 11.779C27.7796 12.0117 27.8181 12.2454 27.8515 12.4806C27.8849 12.7153 27.9127 12.9504 27.9348 13.1866C27.9569 13.4232 27.9738 13.6594 27.9846 13.8965C27.9959 14.1337 28.0016 14.3708 28.0016 14.6084Z" fill="#800202"/>
</g>
<path d="M14.1364 23.5191C13.3937 23.5201 12.6632 23.4207 11.9453 23.221C11.2275 23.0217 10.5463 22.7285 9.9019 22.3423L5.92937 23.4552L6.96378 19.4184C6.87958 19.2811 6.79867 19.1409 6.72152 18.9987C6.64485 18.8565 6.57147 18.7119 6.50185 18.5658C6.4327 18.4191 6.36684 18.2706 6.30569 18.1205C6.24407 17.9699 6.18621 17.8184 6.13258 17.6649C6.07896 17.5109 6.02956 17.3559 5.98394 17.1995C5.93831 17.043 5.89738 16.8856 5.86022 16.7267C5.82306 16.5678 5.78966 16.4084 5.76097 16.2475C5.73227 16.0866 5.70781 15.9252 5.68758 15.7634C5.66736 15.601 5.65136 15.4386 5.6396 15.2758C5.62784 15.1125 5.62032 14.9491 5.61749 14.7858C5.6142 14.6224 5.61561 14.4591 5.62079 14.2957C5.62643 14.1319 5.63631 13.9691 5.64995 13.8062C5.66406 13.6434 5.68241 13.481 5.70499 13.3191C5.72757 13.1573 5.75438 12.9964 5.7859 12.836C5.81694 12.6761 5.85222 12.5167 5.89127 12.3588C5.93078 12.2004 5.97453 12.0434 6.02204 11.8879C6.07002 11.732 6.12176 11.578 6.17774 11.425C6.23325 11.2725 6.29299 11.1214 6.35696 10.9723C6.42094 10.8228 6.4882 10.6757 6.55971 10.53C6.63168 10.3849 6.70694 10.2417 6.78597 10.1005C6.865 9.95933 6.94779 9.82059 7.03387 9.6843C7.12042 9.54802 7.21027 9.41469 7.30341 9.28333C7.39702 9.15246 7.49392 9.02405 7.59412 8.89859C7.69431 8.77313 7.79733 8.65014 7.90411 8.53058C8.01089 8.41103 8.12049 8.29492 8.23292 8.18127C8.34582 8.06811 8.46153 7.95839 8.58008 7.85163C8.69862 7.74487 8.81951 7.64204 8.94369 7.54217C9.06741 7.44279 9.19395 7.34685 9.32284 7.25435C9.4522 7.16186 9.58344 7.0733 9.71703 6.98868C9.85063 6.90356 9.98657 6.82288 10.1244 6.74563C10.2622 6.66888 10.4019 6.59607 10.544 6.52719C10.6856 6.45831 10.8291 6.39337 10.9744 6.33236C11.1193 6.27184 11.2661 6.21526 11.4142 6.16311C11.5624 6.11096 11.7115 6.06324 11.8625 6.01945C12.0131 5.97566 12.1645 5.93631 12.3174 5.90187C12.4703 5.86693 12.6236 5.83643 12.7779 5.81036C12.9322 5.78428 13.087 5.76263 13.2427 5.74541C13.3979 5.72819 13.5541 5.7154 13.7098 5.70753C13.866 5.69916 14.0221 5.69572 14.1788 5.69621C14.335 5.6972 14.4911 5.70261 14.6473 5.71245C14.8035 5.72229 14.9587 5.73656 15.1144 5.75525C15.2696 5.77395 15.4244 5.79707 15.5782 5.82511C15.7325 5.85267 15.8854 5.88465 16.0378 5.92105C16.1902 5.95746 16.3417 5.9983 16.4917 6.04356C16.6423 6.08882 16.7909 6.13851 16.9386 6.19214C17.0863 6.24577 17.2321 6.30382 17.377 6.36631C17.5214 6.4283 17.6644 6.49472 17.8056 6.56507C17.9467 6.63543 18.0855 6.70972 18.2228 6.78844C18.3602 6.86666 18.4952 6.94883 18.6278 7.03542C18.7605 7.12151 18.8913 7.21155 19.0192 7.30503C19.1471 7.39851 19.2727 7.49592 19.396 7.59678C19.5188 7.69813 19.6392 7.80243 19.7563 7.91018C19.8739 8.01793 19.9887 8.12912 20.1002 8.24375C20.2117 8.35789 20.3203 8.47548 20.4257 8.59651C20.5315 8.71705 20.6336 8.84054 20.7324 8.96747C20.8312 9.09391 20.9271 9.22331 21.0189 9.35516C21.1111 9.48751 21.2 9.62182 21.2846 9.75909C21.3698 9.89635 21.4512 10.0356 21.5293 10.1778C21.6069 10.3195 21.6807 10.4636 21.7508 10.6097C21.8209 10.7559 21.8872 10.904 21.9493 11.0535C22.0119 11.2036 22.0702 11.3551 22.1248 11.5086C22.1789 11.6616 22.2292 11.8166 22.2753 11.9726C22.3219 12.129 22.3637 12.2865 22.4018 12.4449C22.4395 12.6038 22.4733 12.7632 22.503 12.9236C22.5326 13.0845 22.5576 13.2453 22.5787 13.4077C22.5999 13.5696 22.6168 13.7319 22.6291 13.8953C22.6418 14.0581 22.6497 14.2215 22.654 14.3848C22.6577 14.5481 22.6573 14.7115 22.6526 14.8748C22.6479 15.0387 22.6389 15.2015 22.6258 15.3644C22.6126 15.5272 22.5947 15.6896 22.5731 15.8519C22.5514 16.0138 22.5251 16.1747 22.495 16.3351C22.4644 16.4954 22.4301 16.6549 22.3915 16.8133C22.3525 16.9717 22.3096 17.1291 22.2631 17.2851C22.216 17.4411 22.1648 17.5955 22.1097 17.7486C22.0547 17.9016 21.9959 18.0526 21.9324 18.2022C21.8694 18.3517 21.8026 18.4993 21.732 18.6455C21.661 18.7911 21.5862 18.9347 21.5081 19.0759C21.4295 19.2176 21.3477 19.3569 21.2621 19.4936C21.176 19.6299 21.0871 19.7642 20.9939 19.8961C20.9013 20.0275 20.8053 20.1564 20.7056 20.2823C20.6063 20.4083 20.5033 20.5318 20.3975 20.6518C20.2912 20.7718 20.182 20.8889 20.0701 21.0026C19.9576 21.1167 19.8429 21.2274 19.7248 21.3347C19.6067 21.4414 19.4858 21.5453 19.3626 21.6456C19.2393 21.746 19.1133 21.8429 18.9844 21.9359C18.856 22.0289 18.7252 22.1179 18.5921 22.2035C18.4585 22.2891 18.3235 22.3708 18.1856 22.4486C18.0483 22.5263 17.9086 22.5996 17.7675 22.6695C17.6259 22.7393 17.4829 22.8048 17.338 22.8663C17.1931 22.9278 17.0468 22.9848 16.8986 23.038C16.7509 23.0911 16.6018 23.1398 16.4513 23.1841C16.3008 23.2284 16.1493 23.2687 15.9969 23.3041C15.8445 23.34 15.6911 23.371 15.5368 23.3981C15.3825 23.4252 15.2278 23.4473 15.0725 23.4655C14.9168 23.4832 14.7611 23.497 14.605 23.5058C14.4493 23.5147 14.2926 23.5191 14.1364 23.5191ZM10.1903 20.3089L10.5252 20.5327C10.6409 20.61 10.7594 20.6838 10.8799 20.7536C11.0003 20.8235 11.1226 20.8894 11.2468 20.9514C11.3714 21.0134 11.4975 21.071 11.625 21.1251C11.7529 21.1792 11.8818 21.2289 12.0126 21.2742C12.1434 21.3199 12.2751 21.3613 12.4082 21.3982C12.5413 21.4355 12.6754 21.468 12.8104 21.4965C12.9454 21.5251 13.0809 21.5492 13.2173 21.5689C13.3537 21.5886 13.4906 21.6043 13.6279 21.6151C13.7653 21.6259 13.9027 21.6323 14.0405 21.6348C14.1783 21.6368 14.3157 21.6343 14.4535 21.6274C14.5909 21.621 14.7282 21.6097 14.8651 21.594C15.002 21.5787 15.1384 21.5585 15.2739 21.5344C15.4098 21.5098 15.5448 21.4813 15.6789 21.4483C15.813 21.4154 15.9456 21.378 16.0778 21.3362C16.2095 21.2948 16.3398 21.2491 16.4692 21.1989C16.5985 21.1492 16.726 21.0951 16.8521 21.037C16.9777 20.9785 17.1018 20.9165 17.2246 20.8506C17.3469 20.7841 17.4669 20.7143 17.5854 20.6405C17.7035 20.5662 17.8192 20.4889 17.933 20.4073C18.0469 20.3261 18.1579 20.241 18.2666 20.1529C18.3752 20.0644 18.4811 19.9724 18.5845 19.8769C18.6876 19.7815 18.7882 19.6831 18.8856 19.5812C18.983 19.4794 19.0775 19.3746 19.1688 19.2668C19.26 19.1591 19.348 19.0484 19.4327 18.9347C19.5174 18.8216 19.5992 18.7055 19.6768 18.5864C19.7549 18.4678 19.8292 18.3468 19.9003 18.2233C19.9708 18.0998 20.0381 17.9739 20.1016 17.8465C20.1651 17.7185 20.2248 17.5887 20.2808 17.4568C20.3363 17.3254 20.3885 17.1921 20.4365 17.0568C20.4845 16.922 20.5282 16.7857 20.5682 16.6475C20.6082 16.5097 20.644 16.371 20.6759 16.2308C20.7079 16.0905 20.7352 15.9493 20.7587 15.8076C20.7823 15.6659 20.802 15.5233 20.8171 15.3801C20.8321 15.2369 20.8429 15.0933 20.8495 14.9496C20.8566 14.8055 20.8589 14.6618 20.8571 14.5176C20.8552 14.3735 20.8491 14.2298 20.8392 14.0862C20.8288 13.9425 20.8142 13.7993 20.7959 13.6566C20.7771 13.514 20.7545 13.3718 20.7272 13.2306C20.7004 13.0894 20.6694 12.9492 20.6341 12.8099C20.5988 12.6707 20.5593 12.5324 20.516 12.3962C20.4727 12.2594 20.4252 12.1241 20.374 11.9903C20.3227 11.8564 20.2676 11.7246 20.2088 11.5947C20.1496 11.4643 20.0865 11.3364 20.0202 11.2105C19.9534 11.084 19.8833 10.9605 19.8095 10.839C19.7356 10.7175 19.6585 10.5979 19.5776 10.4818C19.4967 10.3652 19.4125 10.2511 19.325 10.1399C19.2375 10.0287 19.1467 9.92046 19.0526 9.81517C18.9585 9.70989 18.8616 9.60755 18.7619 9.50866C18.6617 9.40928 18.5591 9.31334 18.4538 9.22085C18.3479 9.12835 18.2397 9.0393 18.1292 8.95419C18.0182 8.86858 17.9048 8.78642 17.7896 8.70819C17.6739 8.62996 17.5558 8.55567 17.4358 8.48483C17.3159 8.41398 17.194 8.34756 17.0703 8.28458C16.9461 8.22161 16.8205 8.16306 16.6931 8.10796C16.5656 8.05335 16.4372 8.00267 16.3064 7.95643C16.1761 7.90969 16.0449 7.86738 15.9117 7.82949C15.7791 7.79161 15.645 7.75766 15.5105 7.72814C15.3755 7.69911 15.24 7.67402 15.1036 7.65336C14.9672 7.63269 14.8308 7.61597 14.6934 7.60416C14.556 7.59235 14.4187 7.58497 14.2809 7.58202C14.1435 7.57907 14.0057 7.58005 13.8678 7.58596C13.7305 7.59186 13.5931 7.60219 13.4562 7.61646C13.3189 7.63122 13.1825 7.65041 13.047 7.67353C12.9111 7.69715 12.7756 7.7247 12.6415 7.75717C12.5074 7.78915 12.3743 7.82556 12.2421 7.8659C12.11 7.90673 11.9792 7.95151 11.8498 8.00071C11.72 8.0499 11.592 8.10304 11.466 8.16011C11.3394 8.21767 11.2148 8.27868 11.092 8.34412C10.9692 8.40955 10.8488 8.47843 10.7298 8.55174C10.6113 8.62455 10.4951 8.7013 10.3808 8.78199C10.2665 8.86268 10.155 8.94681 10.0458 9.03438C9.93624 9.12245 9.82993 9.21347 9.72597 9.30793C9.62201 9.40239 9.52135 9.5003 9.42303 9.60165C9.32519 9.70251 9.23017 9.80681 9.13797 9.91406C9.04577 10.0213 8.95734 10.131 8.87172 10.2442C8.78611 10.3569 8.70426 10.4725 8.62523 10.5906C8.54668 10.7091 8.47141 10.8297 8.39991 10.9527C8.32841 11.0757 8.2602 11.2006 8.19576 11.328C8.13178 11.4555 8.0711 11.5849 8.01465 11.7162C7.95774 11.8476 7.90505 11.9804 7.85613 12.1152C7.80768 12.25 7.76252 12.3858 7.72159 12.5236C7.68114 12.6609 7.64398 12.7996 7.61152 12.9398C7.57859 13.0795 7.55037 13.2203 7.52591 13.3624C7.50145 13.5041 7.48122 13.6463 7.46523 13.7895C7.44923 13.9327 7.43747 14.0758 7.42948 14.22C7.42195 14.3636 7.41866 14.5073 7.4196 14.6515C7.42054 14.7956 7.42571 14.9393 7.43465 15.0829C7.44406 15.2271 7.4577 15.3703 7.47558 15.5129C7.49298 15.6556 7.51509 15.7978 7.54096 15.9395C7.5673 16.0807 7.59741 16.2214 7.63175 16.3606C7.66609 16.5004 7.70466 16.6386 7.747 16.7754C7.78933 16.9127 7.8359 17.048 7.88623 17.1823C7.93704 17.3161 7.99113 17.4484 8.04946 17.5788C8.10779 17.7097 8.16989 17.8381 8.23527 17.9645C8.30113 18.091 8.37075 18.2155 8.44366 18.3375C8.51704 18.4595 8.59325 18.579 8.67368 18.6961L8.92206 19.0587L8.47894 20.7881L10.1903 20.3089Z" fill="white"/>
<path d="M18.4543 18.1593C18.5935 17.8007 18.6636 17.0878 18.3071 16.8728C18.0422 16.7124 17.7238 16.6115 17.4429 16.4866C17.1221 16.3434 16.8013 16.1697 16.4706 16.0521C16.0049 15.8868 15.71 16.3178 15.408 16.6164C15.3431 16.6804 15.2048 16.8802 15.1041 16.9033C14.9785 16.9323 14.7842 16.7576 14.6793 16.6922C14.4841 16.5697 14.2941 16.4383 14.1101 16.2976C13.5339 15.8568 13.031 15.3378 12.6016 14.741C12.3946 14.4532 12.1589 14.1289 12.0206 13.7963C11.928 13.574 12.0554 13.5061 12.1989 13.3467C12.4901 13.0249 12.9365 12.6938 12.7817 12.1984C12.6797 11.8707 12.5178 11.5509 12.388 11.234C12.2596 10.9197 12.1514 10.5797 11.9976 10.2776C11.7962 9.88304 11.2463 9.95142 10.9067 10.0705C10.7491 10.1177 10.6061 10.1955 10.4777 10.3027C10.274 10.4936 10.1084 10.7155 9.98144 10.9689C9.52938 11.788 9.6738 13.0347 10.1061 13.8185C10.7157 14.9255 11.2652 16.0133 12.1566 16.9141C13.0287 17.7953 14.1252 18.459 15.2085 19.0208C15.7208 19.2865 16.3074 19.2412 16.8629 19.226C17.433 19.2112 18.2276 18.7433 18.4543 18.1593Z" fill="white"/>
</svg>
